<svg width="54" height="47" viewBox="0 0 54 47" fill="none" xmlns="http://www.w3.org/2000/svg">
<path d="M15.9858 46.1962C17.0164 46.1962 17.8519 45.3608 17.8519 44.3302C17.8519 43.2996 17.0164 42.4641 15.9858 42.4641C14.9552 42.4641 14.1198 43.2996 14.1198 44.3302C14.1198 45.3608 14.9552 46.1962 15.9858 46.1962Z" stroke="white" stroke-linecap="round" stroke-linejoin="round"/>
<path d="M36.5127 46.1962C37.5433 46.1962 38.3787 45.3608 38.3787 44.3302C38.3787 43.2996 37.5433 42.4641 36.5127 42.4641C35.4821 42.4641 34.6466 43.2996 34.6466 44.3302C34.6466 45.3608 35.4821 46.1962 36.5127 46.1962Z" stroke="white" stroke-linecap="round" stroke-linejoin="round"/>
<path d="M1.05713 7.00854H8.52139L13.5225 31.9952C13.6931 32.8543 14.1605 33.626 14.8428 34.1753C15.5251 34.7245 16.3788 35.0163 17.2546 34.9995H35.3927C36.2685 35.0163 37.1222 34.7245 37.8046 34.1753C38.4869 33.626 38.9542 32.8543 39.1249 31.9952L42.1106 16.3389H10.3875" stroke="white" stroke-linecap="round" stroke-linejoin="round"/>
<ellipse cx="44.205" cy="10.3713" rx="9.79509" ry="10.3713" fill="#FF4B32"/>
<path d="M46.4705 12.4141V13.3047H40.8865V12.5254L43.6814 9.41406C44.0251 9.03125 44.2908 8.70703 44.4783 8.44141C44.6697 8.17188 44.8025 7.93164 44.8767 7.7207C44.9548 7.50586 44.9939 7.28711 44.9939 7.06445C44.9939 6.7832 44.9353 6.5293 44.8181 6.30273C44.7048 6.07227 44.5369 5.88867 44.3142 5.75195C44.0916 5.61523 43.822 5.54688 43.5056 5.54688C43.1267 5.54688 42.8103 5.62109 42.5564 5.76953C42.3064 5.91406 42.1189 6.11719 41.9939 6.37891C41.8689 6.64062 41.8064 6.94141 41.8064 7.28125H40.7224C40.7224 6.80078 40.8279 6.36133 41.0388 5.96289C41.2498 5.56445 41.5623 5.24805 41.9763 5.01367C42.3904 4.77539 42.9001 4.65625 43.5056 4.65625C44.0447 4.65625 44.5056 4.75195 44.8884 4.94336C45.2712 5.13086 45.5642 5.39648 45.7673 5.74023C45.9744 6.08008 46.0779 6.47852 46.0779 6.93555C46.0779 7.18555 46.0349 7.43945 45.949 7.69727C45.8669 7.95117 45.7517 8.20508 45.6033 8.45898C45.4587 8.71289 45.2888 8.96289 45.0935 9.20898C44.9021 9.45508 44.697 9.69727 44.4783 9.93555L42.1931 12.4141H46.4705Z" fill="white"/>
</svg>
