<svg width="16" height="13" viewBox="0 0 16 13" fill="none" xmlns="http://www.w3.org/2000/svg">
<path d="M14.641 0.929477C14.0272 1.35815 13.3475 1.68601 12.6282 1.90044C12.2421 1.46097 11.7291 1.14949 11.1583 1.00812C10.5876 0.866752 9.98685 0.902313 9.43722 1.11C8.8876 1.31768 8.41566 1.68746 8.08524 2.16934C7.75481 2.65121 7.58185 3.22192 7.58973 3.80429V4.4389C6.46322 4.46782 5.34696 4.22047 4.34038 3.7189C3.3338 3.21732 2.46814 2.47707 1.8205 1.56409C1.8205 1.56409 -0.743599 7.27563 5.02563 9.81409C3.70546 10.7013 2.13278 11.1461 0.538452 11.0833C6.30768 14.2564 13.359 11.0833 13.359 3.78525C13.3584 3.60848 13.3412 3.43214 13.3077 3.25852C13.9619 2.61977 14.4236 1.81331 14.641 0.929477V0.929477Z" stroke="white" stroke-linecap="round" stroke-linejoin="round"/>
</svg>
