<svg width="15" height="14" viewBox="0 0 15 14" fill="none" xmlns="http://www.w3.org/2000/svg">
<path d="M10.1801 4.46167C11.2002 4.46167 12.1785 4.86284 12.8998 5.57692C13.6211 6.291 14.0263 7.2595 14.0263 8.26936V12.7117H11.4622V8.26936C11.4622 7.93274 11.3271 7.60991 11.0867 7.37188C10.8463 7.13385 10.5202 7.00013 10.1801 7.00013C9.84012 7.00013 9.51402 7.13385 9.27359 7.37188C9.03316 7.60991 8.89809 7.93274 8.89809 8.26936V12.7117H6.33398V8.26936C6.33398 7.2595 6.7392 6.291 7.4605 5.57692C8.18179 4.86284 9.16007 4.46167 10.1801 4.46167Z" stroke="white" stroke-linecap="round" stroke-linejoin="round"/>
<path d="M3.77016 5.09595H1.20605V12.7113H3.77016V5.09595Z" stroke="white" stroke-linecap="round" stroke-linejoin="round"/>
<path d="M2.48811 3.19227C3.19616 3.19227 3.77016 2.62402 3.77016 1.92304C3.77016 1.22206 3.19616 0.653809 2.48811 0.653809C1.78005 0.653809 1.20605 1.22206 1.20605 1.92304C1.20605 2.62402 1.78005 3.19227 2.48811 3.19227Z" stroke="white" stroke-linecap="round" stroke-linejoin="round"/>
</svg>
