<svg width="15" height="14" viewBox="0 0 15 14" fill="none" xmlns="http://www.w3.org/2000/svg">
<path d="M10.359 0.653809H3.94878C2.17864 0.653809 0.743652 2.07444 0.743652 3.82689V10.173C0.743652 11.9255 2.17864 13.3461 3.94878 13.3461H10.359C12.1292 13.3461 13.5642 11.9255 13.5642 10.173V3.82689C13.5642 2.07444 12.1292 0.653809 10.359 0.653809Z" stroke="white" stroke-linecap="round" stroke-linejoin="round"/>
<path d="M9.71705 6.60044C9.79616 7.1286 9.70504 7.668 9.45664 8.14193C9.20824 8.61586 8.81522 9.00018 8.33348 9.24023C7.85173 9.48028 7.3058 9.56384 6.77332 9.47901C6.24085 9.39419 5.74895 9.1453 5.36759 8.76775C4.98623 8.39021 4.73483 7.90323 4.64914 7.37608C4.56346 6.84893 4.64786 6.30845 4.89034 5.83152C5.13281 5.3546 5.52102 4.96551 5.99973 4.71959C6.47845 4.47368 7.0233 4.38347 7.55679 4.46179C8.10098 4.54167 8.60478 4.79271 8.99378 5.17783C9.38278 5.56294 9.63635 6.0617 9.71705 6.60044Z" stroke="white" stroke-linecap="round" stroke-linejoin="round"/>
<path d="M10.679 3.50977H10.6856" stroke="white" stroke-linecap="round" stroke-linejoin="round"/>
</svg>
